<svg height="457" width="241" xmlns="http://www.w3.org/2000/svg"><path d="M196.309 286.66c0-12.104 9.813-21.917 21.917-21.917s21.917 9.813 21.917 21.917-9.813 21.917-21.917 21.917-21.917-9.813-21.917-21.917M47.022 235.908c0-12.104 9.813-21.917 21.917-21.917s21.917 9.813 21.917 21.917-9.813 21.917-21.917 21.917-21.917-9.813-21.917-21.917zm-28.315 64.286c-9.927 0-17.975 8.049-17.975 17.975s8.048 17.975 17.975 17.975h38.256v22.267c0 9.926 8.049 17.974 17.974 17.974 9.927 0 17.976-8.048 17.976-17.974v-22.267s25.617.02 26.086.025c0 0 16.526.319 16.526-17.818 0-18.69-16.526-18.136-16.526-18.136-.272-.011-100.292-.021-100.292-.021M237.82 18.47c0-9.927-8.05-17.975-17.976-17.975S201.87 8.543 201.87 18.47v38.256h-22.267c-9.927 0-17.975 8.05-17.975 17.975s8.048 17.975 17.975 17.975h22.267s-.02 25.617-.026 26.086c0 0-.318 16.527 17.818 16.527 18.69 0 18.136-16.527 18.136-16.527.012-.27.021-100.292.021-100.292zm-38.959 187.498c.07-7.385-1.213-33.13-20.902-53.895-15.934-16.804-39.038-25.324-68.67-25.324-9.926 0-17.975 8.048-17.975 17.975 0 9.926 8.05 17.974 17.975 17.974 19.2 0 33.445 4.661 42.338 13.855 11.713 12.108 11.283 29.276 11.285 29.276l.007.396c0 9.926 8.047 17.974 17.974 17.974s17.975-8.048 17.975-17.974zm-40.588 248.947c7.384.07 33.13-1.213 53.894-20.902 16.804-15.934 25.325-39.038 25.325-68.67 0-9.926-8.049-17.975-17.976-17.975-9.926 0-17.974 8.05-17.974 17.975 0 19.2-4.66 33.445-13.855 42.338-12.108 11.713-29.276 11.283-29.276 11.285l-.396.007c-9.926 0-17.974 8.047-17.974 17.974s8.048 17.975 17.974 17.975z" vector-effect="non-scaling-stroke" fill="none" stroke="#65b230" stroke-width="2"/></svg>